<svg xmlns="http://www.w3.org/2000/svg" viewBox="0 0 128 128" xmlns:v="https://vecta.io/nano"><circle cx="64" cy="64" r="64" fill="#34689b"/><path d="M95.69 43.28h-2.62V37a29.07 29.07 0 1 0-58.14 0v6.31h-2.62A3.35 3.35 0 0 0 29 46.63v58.55a3.35 3.35 0 0 0 3.36 3.36h63.33a3.35 3.35 0 0 0 3.36-3.36V46.63a3.35 3.35 0 0 0-3.36-3.35zM48.36 37a15.64 15.64 0 1 1 31.28 0v6.31H48.36z" fill="#fff"/><path d="M44.53,93.69,60,75.67,44.69,58.13V49.76H81.38V61.34H61.91l11.91,14L61.75,90.47H83.47v11.59H44.53Z" fill="#34689b"/></svg>