<svg xmlns="http://www.w3.org/2000/svg" viewBox="0 0 88.08 88.08" xmlns:v="https://vecta.io/nano"><rect width="88.08" height="88.08" rx="44.04" fill="#34689a"/><path d="M64.02 12.78l21.04 16.46-5.44 6.96-12-9.39 2.71 14.45-17.53 1.99 14.61 11.42-4.63 5.92-22.97-16.86 5.03-6.43 17.51-3.47-3.5-14.44 5.17-6.61zM32.19 44.05l29-37-4.86-3.8-29 37a11.66 11.66 0 0 1 4.86 3.81zm-.59 11.63a13.48 13.48 0 0 0-.86-3.4A13 13 0 0 0 29 49.23a13.64 13.64 0 1 0 2.58 6.45z" fill="#fff"/><circle cx="18.06" cy="57.34" r="6.96" fill="#34689a"/></svg>